<?xml version="1.0" standalone="no"?>
<!DOCTYPE svg PUBLIC "-//W3C//DTD SVG 20010904//EN"
 "http://www.w3.org/TR/2001/REC-SVG-20010904/DTD/svg10.dtd">
<svg version="1.0" xmlns="http://www.w3.org/2000/svg"
 width="640.000000pt" height="640.000000pt" viewBox="0 0 640.000000 640.000000"
 preserveAspectRatio="xMidYMid meet">
<metadata>
Created by potrace 1.14, written by Peter Selinger 2001-2017
</metadata>
<g transform="translate(0.000000,640.000000) scale(0.100000,-0.100000)"
fill="#000000" stroke="none">
<path d="M2202 4172 l-983 -437 3 -35 c3 -35 6 -37 306 -216 167 -100 308
-186 313 -191 6 -6 10 -154 9 -394 0 -211 3 -389 8 -395 4 -6 75 -58 157 -116
397 -278 739 -472 985 -559 85 -30 106 -33 200 -33 93 0 115 3 200 33 186 66
394 175 684 358 159 101 446 299 458 317 5 6 8 184 8 395 -1 240 3 388 9 394
5 5 146 91 313 191 300 179 303 181 306 216 l3 35 -988 438 c-544 240 -993
437 -998 436 -6 -1 -452 -197 -993 -437z m1605 -738 c219 -140 403 -260 408
-265 6 -6 9 -81 6 -198 -3 -174 -2 -190 15 -199 14 -8 15 -13 7 -24 -9 -10 -4
-43 18 -133 16 -66 29 -127 29 -136 0 -9 -19 -28 -42 -42 l-43 -25 -40 21
c-51 29 -54 52 -20 186 14 58 23 112 19 126 -4 16 -2 25 5 25 8 0 11 53 9 187
l-3 187 -413 265 c-393 252 -430 280 -370 281 9 0 195 -115 415 -256z"/>
</g>
</svg>
